<?xml version="1.0" encoding="UTF-8"?>
<!DOCTYPE svg PUBLIC "-//W3C//DTD SVG 1.1//EN" "http://www.w3.org/Graphics/SVG/1.1/DTD/svg11.dtd">
<!-- Creator: CorelDRAW 2021 (64-Bit) -->
<svg xmlns="http://www.w3.org/2000/svg" xml:space="preserve" width="64.8361mm" height="62.7464mm" version="1.1" style="shape-rendering:geometricPrecision; text-rendering:geometricPrecision; image-rendering:optimizeQuality; fill-rule:evenodd; clip-rule:evenodd"
viewBox="0 0 4712.27 4560.39"
 xmlns:xlink="http://www.w3.org/1999/xlink"
 xmlns:xodm="http://www.corel.com/coreldraw/odm/2003">
 <defs>
  <style type="text/css">
   <![CDATA[
    .fil1 {fill:#E31E24}
    .fil0 {fill:#393185}
   ]]>
  </style>
 </defs>
 <g id="Layer_x0020_1">
  <metadata id="CorelCorpID_0Corel-Layer"/>
  <g id="_2271691961456">
   <path class="fil0" d="M2574.56 2436.59c-83.26,105.84 70.1,257.95 169.37,142.69 85.91,-99.75 -74.46,-263.33 -169.37,-142.69zm-101.56 249.7c-69.82,131.79 133.07,238.23 193.24,101.79 49.97,-113.26 -118.95,-241.99 -193.24,-101.79zm1166.8 -123.67c136.96,-34.96 151.25,-121.11 192.32,-178.31 95.72,103.58 161.28,147.9 267.66,141.43 102.62,-6.24 180.09,-88.06 203.61,-197.77 57.49,-268.25 -209.85,-422.29 -200.97,-556.85 56.55,4.78 127.64,74.24 185.55,24.99 41.01,-34.86 68.65,-214.58 57.74,-286.61 -4.15,-27.31 -10.15,-20.45 -3.68,-48.87 18.32,-80.47 27.38,-91.55 -14.5,-232.73 -76.53,-258.07 -339.22,-572.05 -578.78,-711.02 -261.09,-151.41 -510.23,-136.31 -732.23,-152.41l-364.81 -4.29c-248.51,-26.07 -272.11,-199.98 -357.25,-222.15 -3.94,72.01 177.24,248 238.53,298.61 233.28,192.61 555.32,243.56 694.77,500.7 29.07,53.62 34.33,107.31 54.53,145.75 31.27,-88.18 -59.7,-257.37 -160.06,-348.14 -100.34,-90.78 -212.58,-140.52 -315.4,-187.38l299.91 -3.59c39.25,1.78 65.32,7.13 101.17,7.4 121.08,0.9 264.93,9.73 397.38,43.38 229.75,58.36 439.97,156.07 547.56,407.54 24.43,57.1 55.99,155.91 44.61,205.79 -33.32,-37.79 -151.97,-208.23 -202.69,-215.26 13.98,78.38 114.92,155.71 160.37,227.17 34.64,54.47 48.42,162.22 38.09,206.09 -49.76,-57.72 -137.15,-207.46 -204.16,-223.89 0.12,14.73 -4.62,-1.98 3.2,20.71 3.89,11.25 4.1,10.83 10.81,21.82l89 112.49c60.35,87.62 136.9,270.21 2.09,270.8 -45.26,0.2 -90.99,-39.27 -137.16,-44.62 -30.04,71.44 30.77,162.48 87.64,236.44 273.83,356.25 -14.99,593.18 -193.81,501.47 -2.27,-36.69 4,-55.59 5.59,-87.72 9.88,-200.45 -159.88,-541.65 -167.56,-619.75 67.15,72.21 120.95,167.82 196.4,225.34 12.6,-51.87 -162.13,-250.37 -202.14,-301.37 -76.35,-97.34 -96.92,-189.98 -127.04,-295.65 -100.92,-354.1 14.42,-393.75 -203.19,-570.96 -43.78,100.32 80.78,515.85 117.42,608.28l-41.55 -20.33c-43.27,-30.47 -57.15,-47.04 -114.29,-68.62 -175.37,-66.24 -278.86,136.25 -230.28,320.87 24.46,93.05 148.11,266.26 242.38,293.41 167.21,48.13 231.38,-134.01 266.24,-184.61 54.6,108.97 129.57,382.2 104.53,513.23 -8.19,42.85 -33.61,116.35 -65.28,156.99 -192.78,247.47 -518.71,-39.67 -628,-104.91l-32.68 48.55c24.06,58.09 375.15,280.11 438.85,306.41 72.14,29.8 158.59,40.27 229.57,22.13zm620.6 -1786.66c476.42,778.25 437.15,1626.66 -210,2249.81 -224.99,216.65 -303.43,237.39 -542.27,374.42 72.68,38.43 482.64,-208.93 588.4,-295.82 211.84,-174.13 352.96,-360.48 461.93,-580.38 186.7,-376.8 196.26,-826.23 67.32,-1216.8 -146.89,-444.76 -508.81,-897.21 -929.38,-1111.84 -192.7,-98.33 -403.82,-161.99 -583.73,-176.25 -151.34,-12.01 -454.34,-40.39 -587,19.22 14.79,62.5 83.68,133.14 137.79,182.56 477.88,-111.39 1264.58,12.12 1596.95,555.08zm-1228.85 2074.14c4.94,-20.1 23.57,-3.24 -31,-81.19 -20.71,-29.62 -28.49,-44.68 -41.73,-78.83 -59.75,-153.95 -73.22,-322.73 0.23,-469.9 54.87,-109.9 186.47,-189.88 273.76,-162.05 102.59,32.68 169.19,226.39 223.5,303.47 36.78,-11.25 66.88,-17.51 108.13,-50.13 -88.73,-103.18 -146.38,-257.97 -348.93,-375.08 -497.25,-287.48 -627.64,558.06 -183.97,913.7zm-232.79 385.52c95.81,86.94 268.73,255.35 374.47,194.72 131.51,-75.4 37.02,-285.83 -72.38,-389.3 -355.45,-336.15 -504.19,-151.59 -452.07,-10.53 24.39,66.03 91.89,152.42 149.97,205.11zm221.29 -171.4c54.87,156.56 -73.06,303.88 -157.32,146.54 -95.21,-177.86 119.25,-255.16 157.32,-146.54zm207.52 369.92c16.81,0.41 6.13,1.87 25.32,-2.6 56.04,-13.03 180.17,-108.73 219.47,-147.59 175.56,-173.61 257.37,-541.85 181.87,-695.55l-117.17 14.11c-1.6,48.83 13.97,95.31 12.76,196.45 -3.49,289.58 -116.03,440.28 -322.24,635.18zm-746.41 -914.17c-1.32,-53.5 -172.2,-107.88 -176.95,-364.39l4.73 -182.15c2.8,-80.44 8.32,-107.12 2.05,-190.7 12.3,2.06 -3.77,-4.11 22.53,6.5l397.22 286.04 33 -66.8c-68.81,-59.82 -529.33,-401.55 -595.05,-413.92 18.05,79.41 72.78,41.75 61.52,234.29 -9.19,157.02 -36.06,306.42 48.83,472.93 34.62,67.91 134.25,188.41 202.13,218.21zm746.3 -896.66c-3.29,-56.27 1.75,-129.81 45.24,-191.73 53.09,-75.6 132.93,-82.83 190.3,-47.35 -62.16,110.34 -79.64,237.73 -235.55,239.08z"/>
   <path class="fil1" d="M1385.71 2698.37c81.05,-134.15 315.28,-279.31 427.1,-75.75 48.94,89.11 27.4,219.1 -1.53,313.51 -173.44,566.15 -1048.99,336.89 -1381.67,-131.87 -12.22,-17.25 -28.21,-45.28 -42.5,-56.66 18.22,103.47 174.28,297.73 253.38,375.59 226.08,222.58 593.09,357.91 940.12,315.35 49.89,-6.11 89.36,-13.42 137.62,-23.11 33.5,-6.74 36.69,-3.39 60.26,12.97 42.33,29.4 225.68,145.32 253.7,152.34 3.12,-148.98 1.24,-302.77 4.38,-449 3.17,-147.37 14.93,-287.5 -28.96,-419.49 -151.05,-454.39 -620.48,-230.37 -621.9,-13.88zm406.91 -1795.61c3.24,21.88 1.17,12.06 9.19,17.51 -0.73,23.44 6.34,30.63 10.26,51.5 2.79,14.92 5.07,40.93 6.56,56.52 23.79,249.76 -102.83,360.85 -153.27,488.58 -28.91,73.2 -34.63,137.2 -36.03,222.12 -16.56,-7.26 -14.86,-7.01 -26.91,-21.54 -211.17,-254.57 -121.67,-533.18 -128.18,-555.81 -48.73,109.91 -82.16,208.79 -62.69,356.21 33.86,256.6 181.63,364 364.9,501.1 81.74,61.14 169.95,135.63 235.71,198.98 173.54,167.18 194.36,322.03 206.16,637.8l1.9 1704.66 176.87 -0.91c-4.34,-105.6 18.37,-1399.67 -9.48,-1691.46 -84.21,-441.56 -364.55,-1035.22 -364.55,-1454.32 0,-337.7 121.3,-647.03 322.63,-886.92l0 -11.99c-1.53,1.99 -3.04,3.84 -4.53,5.56 -33.04,-34.39 -46.24,-110.48 -207.65,-262.13 -86.31,-81.09 -180.61,-131.24 -299.31,-181.05 -234.77,-98.53 -573.49,-97.72 -839.15,-25.72 -348.79,94.51 -659.91,308.39 -837.48,599.61 -203,332.92 -201.6,749.96 -42.99,1103.69 9.24,20.58 17.89,41.69 26.55,59.78 10.18,21.25 14.84,41.07 33.13,55.77 7.31,-181.36 -13.24,-198.71 27.46,-405.19 68.36,-346.79 179.37,-657.15 449.52,-876.75 166.25,-135.13 426.86,-210.73 695.68,-127.01 197.35,61.46 390.22,237.54 445.71,441.43z"/>
  </g>
 </g>
</svg>
